<svg xmlns="http://www.w3.org/2000/svg" viewBox="0 0 800 600" width="100%" height="100%">
  <defs>
    <!-- App dark-background gradient for engine blocks -->
    <linearGradient id="blockGrad" x1="0%" y1="0%" x2="100%" y2="100%">
      <stop offset="0%" stop-color="#1a202c"/>
      <stop offset="50%" stop-color="#141929"/>
      <stop offset="100%" stop-color="#0a0e27"/>
    </linearGradient>

    <!-- App accent gradient for book pages: blue → purple → green -->
    <linearGradient id="pageGrad" x1="0%" y1="0%" x2="100%" y2="0%">
      <stop offset="0%" stop-color="#60a5fa"/>
      <stop offset="50%" stop-color="#a78bfa"/>
      <stop offset="100%" stop-color="#4ade80"/>
    </linearGradient>

    <!-- App blue→purple gradient for pistons -->
    <linearGradient id="pistonGrad" x1="0%" y1="0%" x2="0%" y2="100%">
      <stop offset="0%" stop-color="#a78bfa"/>
      <stop offset="100%" stop-color="#60a5fa"/>
    </linearGradient>

    <!-- App amber→red gradient for turbocharger -->
    <linearGradient id="turboGrad" x1="0%" y1="0%" x2="100%" y2="100%">
      <stop offset="0%" stop-color="#fbbf24"/>
      <stop offset="40%" stop-color="#f87171"/>
      <stop offset="100%" stop-color="#dc2626"/>
    </linearGradient>

    <filter id="glow" x="-20%" y="-20%" width="140%" height="140%">
      <feGaussianBlur stdDeviation="3" result="blur" />
      <feComposite in="SourceGraphic" in2="blur" operator="over"/>
    </filter>

    <g id="pistonHole">
       <ellipse cx="0" cy="0" rx="35" ry="12" fill="#020617" stroke="#60a5fa" stroke-width="2"/>
       <ellipse cx="0" cy="-4" rx="31" ry="10" fill="url(#pistonGrad)"/>
       <line x1="-26" y1="0" x2="26" y2="0" stroke="#1a202c" stroke-width="1"/>
       <line x1="-22" y1="3" x2="22" y2="3" stroke="#1a202c" stroke-width="1"/>
    </g>
  </defs>

  <!-- Transparent background so logo blends into app header -->

  <g transform="translate(400, 380)">

    <g transform="rotate(-40)">
      <path d="M -5,-5 L -5,-255 C -60,-265 -155,-235 -200,-170 L -200,-15 L -20,5 Z" fill="url(#blockGrad)" stroke="#60a5fa" stroke-width="3"/>

      <path d="M -10,-10 L -10,-250 C -60,-260 -150,-230 -190,-170 L -190,-10 C -150,-60 -60,-40 -10,-10 Z" fill="url(#pageGrad)" stroke="#4ade80" stroke-width="2"/>

      <path d="M -15,-10 L -15,-245 C -60,-255 -145,-225 -185,-165 L -185,-10" fill="none" stroke="#a78bfa" stroke-width="1.5"/>
      <path d="M -20,-10 L -20,-240 C -60,-250 -140,-220 -180,-160 L -180,-10" fill="none" stroke="#a78bfa" stroke-width="1.5"/>
      <path d="M -25,-10 L -25,-235 C -60,-245 -135,-215 -175,-155 L -175,-10" fill="none" stroke="#a78bfa" stroke-width="1.5"/>

      <use href="#pistonHole" x="-110" y="-180" transform="rotate(18, -110, -180)"/>
      <use href="#pistonHole" x="-65" y="-95" transform="rotate(18, -65, -95)"/>
    </g>

    <g transform="rotate(40)">
      <path d="M 5,-5 L 5,-255 C 60,-265 155,-235 200,-170 L 200,-15 L 20,5 Z" fill="url(#blockGrad)" stroke="#60a5fa" stroke-width="3"/>

      <path d="M 10,-10 L 10,-250 C 60,-260 150,-230 190,-170 L 190,-10 C 150,-60 60,-40 10,-10 Z" fill="url(#pageGrad)" stroke="#4ade80" stroke-width="2"/>

      <path d="M 15,-10 L 15,-245 C 60,-255 145,-225 185,-165 L 185,-10" fill="none" stroke="#a78bfa" stroke-width="1.5"/>
      <path d="M 20,-10 L 20,-240 C 60,-250 140,-220 180,-160 L 180,-10" fill="none" stroke="#a78bfa" stroke-width="1.5"/>
      <path d="M 25,-10 L 25,-235 C 60,-245 135,-215 175,-155 L 175,-10" fill="none" stroke="#a78bfa" stroke-width="1.5"/>

      <use href="#pistonHole" x="110" y="-180" transform="rotate(-18, 110, -180)"/>
      <use href="#pistonHole" x="65" y="-95" transform="rotate(-18, 65, -95)"/>
    </g>

    <circle cx="0" cy="0" r="45" fill="#141929" stroke="#a78bfa" stroke-width="4"/>
    <circle cx="0" cy="0" r="25" fill="url(#pistonGrad)"/>
    <line x1="-25" y1="0" x2="25" y2="0" stroke="#0a0e27" stroke-width="5"/>
    <line x1="0" y1="-25" x2="0" y2="25" stroke="#0a0e27" stroke-width="5"/>
    <circle cx="0" cy="0" r="8" fill="#0a0e27"/>

    <g transform="translate(0, -170)">
      <path d="M 30,-10 C 60,-30 80,0 120,-60" fill="none" stroke="#4ade80" stroke-width="8" stroke-linecap="round"/>
      <path d="M -30,-10 C -60,-30 -80,0 -120,-60" fill="none" stroke="#4ade80" stroke-width="8" stroke-linecap="round"/>

      <path d="M 0,-45 C -60,-45 -70,25 -25,45 C 25,65 70,15 45,-25 C 35,-40 20,-45 0,-45 Z" fill="url(#turboGrad)" stroke="#f87171" stroke-width="4"/>

      <circle cx="0" cy="0" r="22" fill="#141929" stroke="#fbbf24" stroke-width="2"/>

      <g>
        <line x1="0" y1="0" x2="0" y2="-20" stroke="#fbbf24" stroke-width="2"/>
        <line x1="0" y1="0" x2="0" y2="20" stroke="#fbbf24" stroke-width="2"/>
        <line x1="0" y1="0" x2="-20" y2="0" stroke="#fbbf24" stroke-width="2"/>
        <line x1="0" y1="0" x2="20" y2="0" stroke="#fbbf24" stroke-width="2"/>
        <line x1="0" y1="0" x2="-14" y2="-14" stroke="#fbbf24" stroke-width="2"/>
        <line x1="0" y1="0" x2="14" y2="14" stroke="#fbbf24" stroke-width="2"/>
        <line x1="0" y1="0" x2="14" y2="-14" stroke="#fbbf24" stroke-width="2"/>
        <line x1="0" y1="0" x2="-14" y2="14" stroke="#fbbf24" stroke-width="2"/>
      </g>
    </g>
  </g>

  <text x="400" y="520" font-family="'Segoe UI', Roboto, 'Helvetica Neue', Arial, sans-serif" font-size="48" font-weight="900" font-style="italic" fill="#ffffff" text-anchor="middle" letter-spacing="8" filter="url(#glow)">
    TURBO CHARGED
  </text>

  <path d="M 230,540 L 590,540 L 570,550 L 210,550 Z" fill="url(#turboGrad)"/>
</svg>
